<svg width="313" height="359" viewBox="0 0 313 359" fill="none" xmlns="http://www.w3.org/2000/svg">
<path opacity="0.3" d="M158.967 0.0205078C160.609 0.0458914 162.246 0.0981984 163.876 0.173828L163.808 1.66895C165.437 1.74454 167.059 1.8452 168.675 1.9707L168.79 0.476562C170.428 0.603763 172.058 0.757355 173.681 0.93457L173.519 2.42383C175.138 2.60061 176.749 2.80207 178.353 3.02832L178.562 1.54395C180.189 1.77361 181.809 2.03022 183.42 2.30957L183.165 3.78418C184.766 4.06176 186.359 4.36413 187.942 4.69043L188.244 3.22266C189.855 3.55453 191.457 3.91201 193.049 4.29297L192.701 5.75C194.283 6.12837 195.855 6.53059 197.417 6.95703L197.812 5.51172C199.395 5.94387 200.968 6.40067 202.53 6.88086L202.091 8.31348C203.646 8.79146 205.191 9.29316 206.726 9.81836L207.211 8.40039C208.763 8.93185 210.305 9.48695 211.835 10.0654L211.306 11.4668C212.826 12.0416 214.335 12.6399 215.832 13.2607L216.404 11.877C217.921 12.5059 219.427 13.1562 220.919 13.8311L220.302 15.1973C221.782 15.8666 223.249 16.5594 224.704 17.2734L225.363 15.9287C226.837 16.6518 228.297 17.3964 229.744 18.1641L229.042 19.4873C230.477 20.2489 231.899 21.0329 233.308 21.8379L234.051 20.5361C235.474 21.3498 236.883 22.1863 238.278 23.043L237.496 24.3203C238.88 25.1704 240.25 26.0417 241.605 26.9336L242.43 25.6807C243.8 26.5824 245.154 27.507 246.493 28.4502L245.631 29.6748C246.959 30.6096 248.272 31.565 249.568 32.54L250.468 31.3418C251.778 32.3274 253.073 33.333 254.352 34.3584L253.414 35.5273C254.681 36.5434 255.931 37.5792 257.165 38.6338L258.138 37.4951C259.384 38.5602 260.614 39.6431 261.825 40.7461L260.816 41.8555C262.017 42.9486 263.201 44.0606 264.366 45.1904L265.408 44.1143C266.585 45.2549 267.744 46.4139 268.885 47.5908L267.81 48.6338C268.939 49.7995 270.051 50.983 271.145 52.1836L272.253 51.1738C273.356 52.3854 274.439 53.6155 275.504 54.8613L274.366 55.835C275.421 57.0686 276.457 58.3193 277.473 59.5859L278.641 58.6475C279.666 59.9257 280.672 61.2205 281.657 62.5312L280.461 63.4326C281.436 64.7291 282.39 66.0416 283.325 67.3691L284.549 66.5059C285.492 67.8455 286.417 69.1993 287.318 70.5693L286.066 71.3945C286.958 72.7498 287.83 74.1194 288.681 75.5039L289.956 74.7207C290.813 76.1158 291.649 77.5247 292.463 78.9482L291.162 79.6924C291.967 81.1006 292.751 82.5225 293.513 83.958L294.835 83.2559C295.602 84.7024 296.347 86.1627 297.07 87.6357L295.727 88.2959C296.441 89.7509 297.133 91.219 297.803 92.6992L299.169 92.0811V92.0801C299.844 93.5722 300.493 95.078 301.122 96.5947L299.739 97.168C300.36 98.665 300.958 100.174 301.533 101.694L302.934 101.164C303.512 102.694 304.067 104.236 304.599 105.789L303.182 106.274C303.707 107.809 304.21 109.354 304.688 110.909L306.118 110.469C306.598 112.031 307.055 113.604 307.487 115.188L306.043 115.583C306.469 117.145 306.872 118.717 307.25 120.299L308.706 119.95C309.087 121.543 309.444 123.144 309.776 124.755L308.31 125.058C308.636 126.642 308.938 128.235 309.216 129.836L310.689 129.579C310.969 131.191 311.225 132.81 311.455 134.438L309.972 134.647C310.198 136.251 310.399 137.863 310.576 139.481L312.064 139.318C312.242 140.941 312.395 142.572 312.522 144.209L311.029 144.325C311.155 145.941 311.255 147.563 311.331 149.192L312.826 149.123C312.902 150.753 312.953 152.39 312.979 154.032L311.481 154.055C311.494 154.868 311.5 155.683 311.5 156.5V159.031H313V164.094H311.5V169.156H313V174.219H311.5V179.281H313V184.344H311.5V189.406H313V194.469H311.5V199.531H313V204.594H311.5V209.656H313V214.719H311.5V219.781H313V224.844H311.5V229.906H313V234.969H311.5V240.031H313V245.094H311.5V250.156H313V255.219H311.5V260.281H313V265.344H311.5V270.406H313V275.469H311.5V280.531H313V285.594H311.5V290.656H313V295.719H311.5V300.781H313V305.844H311.5V310.906H313V315.969H311.5V321.031H313V326.094H311.5V331.156H313V336.219H311.5V341.281H313V346.344H311.5V351.406H313V356.469H311.5V357.5H310.476V359H305.428V357.5H300.379V359H295.331V357.5H293.5V356.469H290.5V357.5H289.491V359H285.234V357.5H279.454V359H275.137V357.5H270.5V356.554H267.5V357.5H266.555V359H265.04V357.5H256.771V359H254.943V357.5H246.989V359H244.847V357.5H237.207V359H234.75V357.5H227.424V359H224.653V357.5H217.642V359H214.557V357.5H207.858V359H204.46V357.5H198.076V359H194.363V357.5H188.294V359H184.267V357.5H178.511V359H174.169V357.5H168.729V359H164.072V357.5H158.945V359H154.055V357.5H148.928V359H144.271V357.5H138.831V359H134.489V357.5H128.733V359H124.706V357.5H118.637V359H114.924V357.5H108.54V359H105.142V357.5H98.4434V359H95.3584V357.5H88.3467V359H85.5762V357.5H78.25V359H75.7939V357.5H68.1533V359H66.0107V357.5H58.0566V359H56.2285V357.5H47.96V359H46.4453V357.5H45.5V356.554H42.5V357.5H37.8633V359H33.5459V357.5H27.7666V359H23.5088V357.5H22.5V356.469H19.5V357.5H17.6689V359H12.6211V357.5H7.57227V359H2.52441V357.5H1.5V356.469H0V351.406H1.5V346.344H0V341.281H1.5V336.219H0V331.156H1.5V326.094H0V321.031H1.5V315.969H0V310.906H1.5V305.844H0V300.781H1.5V295.719H0V290.656H1.5V285.594H0V280.531H1.5V275.469H0V270.406H1.5V265.344H0V260.281H1.5V255.219H0V250.156H1.5V245.094H0V240.031H1.5V234.969H0V229.906H1.5V224.844H0V219.781H1.5V214.719H0V209.656H1.5V204.594H0V199.531H1.5V194.469H0V189.406H1.5V184.344H0V179.281H1.5V174.219H0V169.156H1.5V164.094H0V159.031H1.5V156.5C1.5 155.684 1.50598 154.868 1.51855 154.055L0.0205078 154.032C0.0459021 152.39 0.0981878 150.753 0.173828 149.123L1.66895 149.192C1.74454 147.563 1.8452 145.941 1.9707 144.325L0.476562 144.209C0.603774 142.572 0.757344 140.941 0.93457 139.318L2.42383 139.481C2.60061 137.863 2.80208 136.251 3.02832 134.647L1.54395 134.438C1.77365 132.81 2.03016 131.191 2.30957 129.579L3.78418 129.836C4.06178 128.235 4.3641 126.642 4.69043 125.058L3.22266 124.755C3.55454 123.144 3.912 121.543 4.29297 119.95L5.75 120.299C6.12837 118.717 6.53059 117.145 6.95703 115.583L5.51172 115.188C5.94388 113.604 6.40066 112.031 6.88086 110.469L8.31348 110.909C8.79145 109.354 9.29317 107.809 9.81836 106.274L8.40039 105.789C8.93195 104.236 9.48683 102.694 10.0654 101.164L11.4668 101.694C12.0416 100.174 12.6399 98.665 13.2607 97.168L11.877 96.5947C12.5039 95.0828 13.1526 93.5823 13.8252 92.0947L13.8311 92.0811L15.1982 92.6982C15.8676 91.2183 16.5594 89.7507 17.2734 88.2959L15.9287 87.6357C16.6518 86.1624 17.3964 84.7017 18.1641 83.2549L19.4873 83.958C20.2489 82.5225 21.0329 81.1006 21.8379 79.6924L20.5361 78.9482C21.3499 77.5247 22.1863 76.1158 23.043 74.7207L24.3203 75.5039C25.1704 74.1196 26.0417 72.7497 26.9336 71.3945L25.6807 70.5693C26.5824 69.1993 27.507 67.8455 28.4502 66.5059L29.6748 67.3691C30.6096 66.0414 31.565 64.7283 32.54 63.4316L31.3418 62.5312C32.3274 61.2205 33.333 59.9257 34.3584 58.6475L35.5273 59.5859C36.5434 58.3193 37.5792 57.0686 38.6338 55.835L37.4951 54.8613C38.5602 53.6155 39.6431 52.3854 40.7461 51.1738L41.8555 52.1836C42.9486 50.983 44.0606 49.7995 45.1904 48.6338L44.1143 47.5908C45.2549 46.4139 46.4139 45.2549 47.5908 44.1143L48.6338 45.1904C49.7995 44.0606 50.983 42.9486 52.1836 41.8555L51.1738 40.7461C52.3854 39.6431 53.6155 38.5602 54.8613 37.4951L55.835 38.6338C57.0686 37.5792 58.3193 36.5434 59.5859 35.5273L58.6475 34.3584C59.9257 33.333 61.2206 32.3274 62.5312 31.3418L63.4326 32.5391C64.7291 31.5642 66.0416 30.6095 67.3691 29.6748L66.5068 28.4492C67.8461 27.5063 69.1996 26.5822 70.5693 25.6807L71.3945 26.9336C72.7499 26.0415 74.1204 25.1705 75.5049 24.3203L74.7207 23.0439C76.116 22.1871 77.5254 21.351 78.9492 20.5371L79.6924 21.8379C81.1006 21.0329 82.5225 20.2489 83.958 19.4873L83.2549 18.1641C84.7017 17.3964 86.1624 16.6518 87.6357 15.9287L88.2959 17.2734C89.7509 16.5593 91.219 15.8667 92.6992 15.1973L92.0811 13.8311L92.0801 13.8301C93.5722 13.1553 95.0781 12.5059 96.5947 11.877L97.168 13.2607C98.665 12.6399 100.174 12.0416 101.694 11.4668L101.164 10.0654C102.694 9.48683 104.236 8.93195 105.789 8.40039L106.274 9.81836C107.809 9.29318 109.354 8.79145 110.909 8.31348L110.469 6.88086C112.031 6.40066 113.604 5.94388 115.188 5.51172L115.583 6.95703C117.145 6.53059 118.717 6.12837 120.299 5.75L119.95 4.29297C121.543 3.912 123.144 3.55454 124.755 3.22266L125.058 4.69043C126.642 4.3641 128.235 4.06178 129.836 3.78418L129.579 2.30957C131.191 2.03016 132.81 1.77366 134.438 1.54395L134.647 3.02832C136.251 2.80208 137.863 2.60061 139.481 2.42383L139.318 0.93457C140.941 0.757343 142.572 0.603775 144.209 0.476562L144.325 1.9707C145.941 1.8452 147.563 1.74454 149.192 1.66895L149.123 0.173828C150.753 0.098187 152.39 0.0459028 154.032 0.0205078L154.055 1.51855C154.868 1.50598 155.684 1.5 156.5 1.5C157.316 1.5 158.132 1.50598 158.945 1.51855L158.967 0.0205078ZM267.5 346.768V351.661H270.5V346.768H267.5ZM42.5 346.768V351.66H45.5V346.768H42.5ZM19.5 346.344V351.406H22.5V346.344H19.5ZM290.5 346.344V351.406H293.5V346.344H290.5ZM42.5 336.982V341.875H45.5V336.982H42.5ZM267.5 336.982V341.875H270.5V336.982H267.5ZM19.5 336.219V341.281H22.5V336.219H19.5ZM290.5 336.219V341.281H293.5V336.219H290.5ZM42.5 327.196V332.089H45.5V327.196H42.5ZM267.5 327.196V332.089H270.5V327.196H267.5ZM19.5 326.094V331.156H22.5V326.094H19.5ZM290.5 326.094V331.156H293.5V326.094H290.5ZM42.5 317.41V322.304H45.5V317.41H42.5ZM267.5 317.411V322.304H270.5V317.411H267.5ZM19.5 315.969V321.031H22.5V315.969H19.5ZM290.5 315.969V321.031H293.5V315.969H290.5ZM42.5 307.625V312.518H45.5V307.625H42.5ZM267.5 307.625V312.518H270.5V307.625H267.5ZM19.5 305.844V310.906H22.5V305.844H19.5ZM290.5 305.844V310.906H293.5V305.844H290.5ZM42.5 297.839V302.732H45.5V297.839H42.5ZM267.5 297.839V302.732H270.5V297.839H267.5ZM19.5 295.719V300.781H22.5V295.719H19.5ZM290.5 295.719V300.781H293.5V295.719H290.5ZM42.5 288.054V292.946H45.5V288.054H42.5ZM267.5 288.054V292.946H270.5V288.054H267.5ZM19.5 285.594V290.656H22.5V285.594H19.5ZM290.5 285.594V290.656H293.5V285.594H290.5ZM267.5 278.268V283.161H270.5V278.268H267.5ZM42.5 278.268V283.16H45.5V278.268H42.5ZM19.5 275.469V280.531H22.5V275.469H19.5ZM290.5 275.469V280.531H293.5V275.469H290.5ZM42.5 268.482V273.375H45.5V268.482H42.5ZM267.5 268.482V273.375H270.5V268.482H267.5ZM19.5 265.344V270.406H22.5V265.344H19.5ZM290.5 265.344V270.406H293.5V265.344H290.5ZM42.5 258.696V263.589H45.5V258.696H42.5ZM267.5 258.696V263.589H270.5V258.696H267.5ZM19.5 255.219V260.281H22.5V255.219H19.5ZM290.5 255.219V260.281H293.5V255.219H290.5ZM42.5 248.911V253.804H45.5V248.911H42.5ZM267.5 248.911V253.804H270.5V248.911H267.5ZM19.5 245.094V250.156H22.5V245.094H19.5ZM290.5 245.094V250.156H293.5V245.094H290.5ZM42.5 239.125V244.018H45.5V239.125H42.5ZM267.5 239.125V244.018H270.5V239.125H267.5ZM19.5 234.969V240.031H22.5V234.969H19.5ZM290.5 234.969V240.031H293.5V234.969H290.5ZM42.5 229.339V234.232H45.5V229.339H42.5ZM267.5 229.339V234.232H270.5V229.339H267.5ZM19.5 224.844V229.906H22.5V224.844H19.5ZM290.5 224.844V229.906H293.5V224.844H290.5ZM42.5 219.554V224.446H45.5V219.554H42.5ZM267.5 219.554V224.446H270.5V219.554H267.5ZM19.5 214.719V219.781H22.5V214.719H19.5ZM290.5 214.719V219.781H293.5V214.719H290.5ZM42.5 209.768V214.661H45.5V209.768H42.5ZM267.5 209.768V214.661H270.5V209.768H267.5ZM19.5 204.594V209.656H22.5V204.594H19.5ZM290.5 204.594V209.656H293.5V204.594H290.5ZM42.5 199.982V204.875H45.5V199.982H42.5ZM267.5 199.982V204.875H270.5V199.982H267.5ZM19.5 194.469V199.531H22.5V194.469H19.5ZM290.5 194.469V199.531H293.5V194.469H290.5ZM42.5 190.196V195.089H45.5V190.196H42.5ZM267.5 190.196V195.089H270.5V190.196H267.5ZM19.5 184.344V189.406H22.5V184.344H19.5ZM290.5 184.344V189.406H293.5V184.344H290.5ZM42.5 180.411V185.304H45.5V180.411H42.5ZM267.5 180.411V185.304H270.5V180.411H267.5ZM19.5 174.219V179.281H22.5V174.219H19.5ZM290.5 174.219V179.281H293.5V174.219H290.5ZM42.5 170.625V175.518H45.5V170.625H42.5ZM267.5 170.625V175.518H270.5V170.625H267.5ZM19.5 164.094V169.156H22.5V164.094H19.5ZM290.5 164.094V169.156H293.5V164.094H290.5ZM42.5 160.839V165.732H45.5V160.839H42.5ZM267.5 160.84V165.732H270.5V160.84H267.5ZM19.5234 153.929C19.5077 154.784 19.5 155.641 19.5 156.5V159.031H22.5V156.5C22.5 155.66 22.508 154.821 22.5234 153.984L21.0234 153.957L19.5234 153.929ZM290.477 153.984C290.492 154.821 290.5 155.66 290.5 156.5V159.031H293.5V156.5C293.5 155.641 293.492 154.785 293.477 153.93L290.477 153.984ZM42.5264 151.005C42.5086 151.834 42.5 152.666 42.5 153.5V155.946H45.5V153.5C45.5 152.688 45.509 151.877 45.5264 151.069L42.5264 151.005ZM267.474 151.069C267.491 151.877 267.5 152.688 267.5 153.5V155.946H270.5V153.5C270.5 152.666 270.491 151.834 270.474 151.005L267.474 151.069ZM20.0898 143.703C19.9328 145.398 19.8066 147.103 19.7119 148.815L21.21 148.898L22.707 148.981C22.7997 147.306 22.9235 145.639 23.0771 143.98L21.583 143.842L20.0898 143.703ZM291.417 143.842L289.923 143.98C290.076 145.639 290.2 147.306 290.293 148.981L291.79 148.898L293.288 148.815C293.193 147.103 293.067 145.398 292.91 143.703L291.417 143.842ZM43.168 141.086C42.9903 142.727 42.8475 144.378 42.7402 146.038L45.7344 146.231C45.8389 144.614 45.9783 143.006 46.1514 141.408L44.6592 141.247L43.168 141.086ZM266.85 141.408C267.023 143.006 267.161 144.614 267.266 146.231L270.26 146.038C270.152 144.378 270.01 142.727 269.832 141.086L266.85 141.408ZM21.415 133.542C21.1318 135.221 20.8798 136.91 20.6582 138.608L22.1455 138.803L23.6328 138.996C23.8495 137.335 24.097 135.683 24.374 134.041L22.8945 133.792L21.415 133.542ZM290.105 133.792L288.627 134.041C288.904 135.683 289.15 137.335 289.367 138.996L290.854 138.803L292.342 138.608C292.12 136.91 291.868 135.221 291.585 133.542L290.105 133.792ZM44.6699 131.253C44.3491 132.875 44.0628 134.509 43.8115 136.155L45.2939 136.382L46.7773 136.608C47.022 135.006 47.3009 133.414 47.6133 131.835L44.6699 131.253ZM266.858 131.544L265.388 131.835C265.7 133.414 265.979 135.006 266.224 136.608L269.188 136.155C268.937 134.509 268.651 132.875 268.33 131.253L266.858 131.544ZM23.498 123.511C23.0889 125.166 22.7106 126.833 22.3623 128.511L23.8311 128.815L25.2988 129.12C25.6395 127.479 26.0111 125.85 26.4111 124.231L24.9541 123.871L23.498 123.511ZM286.59 124.231C286.99 125.85 287.361 127.479 287.701 129.12L290.639 128.511C290.29 126.833 289.911 125.166 289.502 123.511L286.59 124.231ZM47.0273 121.588C46.5652 123.176 46.1363 124.779 45.7422 126.395L47.2002 126.75L48.6572 127.104C49.0409 125.532 49.4583 123.972 49.9082 122.426L47.0273 121.588ZM263.092 122.426C263.542 123.972 263.959 125.532 264.343 127.104L265.801 126.75L267.258 126.395C266.864 124.779 266.435 123.176 265.973 121.588L263.092 122.426ZM285.244 114.131L283.819 114.6C284.34 116.183 284.832 117.78 285.295 119.389L288.178 118.559C287.705 116.914 287.201 115.282 286.669 113.663L285.244 114.131ZM26.3311 113.662C25.7986 115.281 25.2954 116.914 24.8223 118.559L26.2637 118.974L27.7051 119.388C28.1678 117.779 28.66 116.183 29.1807 114.6L26.3311 113.662ZM50.2236 112.169C49.6236 113.711 49.0565 115.269 48.5225 116.843L49.9424 117.325L51.3633 117.807C51.8832 116.275 52.4354 114.758 53.0195 113.257L51.6221 112.713L50.2236 112.169ZM261.378 112.713L259.98 113.257C260.565 114.758 261.117 116.275 261.637 117.807L263.058 117.325L264.478 116.843C263.943 115.269 263.376 113.711 262.776 112.169L261.378 112.713ZM29.8965 104.058C29.2432 105.633 28.6181 107.224 28.0225 108.828L29.4287 109.35L30.835 109.872C31.4174 108.303 32.0281 106.748 32.667 105.207L31.2822 104.632L29.8965 104.058ZM281.719 104.632L280.333 105.207C280.972 106.748 281.583 108.303 282.165 109.872L283.571 109.35L284.978 108.828C284.382 107.224 283.757 105.633 283.104 104.058L281.719 104.632ZM54.2344 103.067C53.5011 104.552 52.7986 106.054 52.1289 107.574L54.875 108.783C55.5269 107.304 56.21 105.841 56.9238 104.396L55.5791 103.731L54.2344 103.067ZM257.421 103.731L256.076 104.396C256.79 105.841 257.474 107.304 258.126 108.783L259.498 108.179L260.871 107.574C260.201 106.054 259.499 104.552 258.766 103.067L257.421 103.731ZM34.1748 94.7461C33.4049 96.2681 32.6623 97.8063 31.9482 99.3604L33.3115 99.9873L34.6748 100.613C35.3732 99.0933 36.0985 97.5883 36.8516 96.0996L35.5137 95.4229L34.1748 94.7461ZM277.486 95.4229L276.148 96.0996C276.901 97.5884 277.628 99.0933 278.326 100.613L279.688 99.9873L281.052 99.3604C280.338 97.8063 279.595 96.2681 278.825 94.7461L277.486 95.4229ZM59.0254 94.3516C58.1649 95.7666 57.3349 97.2026 56.5352 98.6572L59.1641 100.103C59.9427 98.6863 60.7511 97.2889 61.5889 95.9111L60.3076 95.1318L59.0254 94.3516ZM252.692 95.1318L251.411 95.9111C252.249 97.2889 253.058 98.6863 253.837 100.103L256.466 98.6572C255.666 97.2025 254.835 95.7667 253.975 94.3516L252.692 95.1318ZM64.5596 86.0859C63.5786 87.4215 62.6254 88.7801 61.7021 90.1592L62.9492 90.9932L64.1953 91.8281C65.0943 90.4853 66.0223 89.1629 66.9775 87.8623L65.7686 86.9746L64.5596 86.0859ZM247.232 86.9746L246.023 87.8623C246.979 89.1628 247.906 90.4854 248.805 91.8281L250.051 90.9932L251.298 90.1592C250.375 88.7801 249.422 87.4215 248.441 86.0859L247.232 86.9746ZM39.1387 85.7832C38.2567 87.2438 37.4006 88.7231 36.5723 90.2188L39.1973 91.6719C40.0074 90.2091 40.8444 88.7626 41.707 87.334L39.1387 85.7832ZM272.577 86.5596L271.294 87.334C272.157 88.7626 272.993 90.2092 273.803 91.6719L276.428 90.2188C275.599 88.7232 274.743 87.2448 273.861 85.7842L272.577 86.5596ZM70.7891 78.334C69.6958 79.5797 68.6288 80.8497 67.5898 82.1426L68.7598 83.082L69.9287 84.0215C70.9405 82.7624 71.9792 81.5257 73.0439 80.3125L71.917 79.3232L70.7891 78.334ZM241.084 79.3232L239.956 80.3125C241.021 81.5257 242.059 82.7624 243.071 84.0215L244.241 83.082L245.41 82.1426C244.371 80.8497 243.304 79.5797 242.211 78.334L241.084 79.3232ZM44.7598 77.2158C43.7709 78.607 42.8067 80.0172 41.8691 81.4463L43.123 82.2695L44.3779 83.0928C45.295 81.6949 46.2377 80.315 47.2051 78.9541L44.7598 77.2158ZM265.796 78.9541C266.763 80.3149 267.706 81.695 268.623 83.0928L269.877 82.2695L271.131 81.4473C270.193 80.0182 269.23 78.607 268.241 77.2158L265.796 78.9541ZM77.667 71.1504C76.4695 72.297 75.297 73.4695 74.1504 74.667L75.2334 75.7051L76.3174 76.7422C77.4341 75.576 78.576 74.4341 79.7422 73.3174L78.7051 72.2334L77.667 71.1504ZM234.295 72.2334L233.258 73.3174C234.424 74.4341 235.566 75.576 236.683 76.7422L237.767 75.7051L238.85 74.667C237.703 73.4695 236.53 72.297 235.333 71.1504L234.295 72.2334ZM51.002 69.0918C49.912 70.4058 48.8458 71.7409 47.8047 73.0957L50.1836 74.9238C51.2019 73.5988 52.2445 72.2931 53.3105 71.0078L51.002 69.0918ZM259.689 71.0078C260.756 72.2931 261.798 73.5987 262.816 74.9238L265.195 73.0957C264.154 71.7409 263.088 70.4058 261.998 69.0918L259.689 71.0078ZM85.1426 64.5898C83.8497 65.6288 82.5797 66.6957 81.334 67.7891L82.3232 68.917L83.3125 70.0439C84.5257 68.9792 85.7624 67.9405 87.0215 66.9287L86.082 65.7588L85.1426 64.5898ZM226.918 65.7588L225.979 66.9287C227.238 67.9405 228.474 68.9792 229.688 70.0439L230.677 68.917L231.666 67.7891C230.42 66.6958 229.15 65.6288 227.857 64.5898L226.918 65.7588ZM57.832 61.4551C56.6471 62.6849 55.4844 63.9366 54.3457 65.21L56.582 67.21C57.696 65.9643 58.833 64.7392 59.9922 63.5361L58.9121 62.4951L57.832 61.4551ZM254.088 62.4951L253.008 63.5361C254.167 64.7392 255.304 65.9643 256.418 67.21L258.654 65.21C257.516 63.9366 256.353 62.6849 255.168 61.4551L254.088 62.4951ZM93.1592 58.7021C91.7801 59.6254 90.4215 60.5786 89.0859 61.5596L89.9746 62.7686L90.8623 63.9775C92.1629 63.0223 93.4853 62.0943 94.8281 61.1953L93.9932 59.9492L93.1592 58.7021ZM219.007 59.9492L218.172 61.1953C219.515 62.0943 220.837 63.0223 222.138 63.9775L223.025 62.7686L223.914 61.5596C222.579 60.5787 221.221 59.6254 219.842 58.7021L219.007 59.9492ZM65.21 54.3457C63.9366 55.4844 62.6849 56.6471 61.4551 57.832L62.4951 58.9121L63.5361 59.9922C64.7392 58.833 65.9643 57.696 67.21 56.582L65.21 54.3457ZM245.79 56.582C247.036 57.696 248.261 58.833 249.464 59.9922L251.546 57.832C250.316 56.6471 249.063 55.4844 247.79 54.3457L245.79 56.582ZM101.657 53.5352C100.203 54.3348 98.7674 55.165 97.3525 56.0254L98.1318 57.3076L98.9111 58.5889C100.289 57.7511 101.686 56.9427 103.103 56.1641L101.657 53.5352ZM209.897 56.1641C211.314 56.9427 212.712 57.751 214.09 58.5889L214.869 57.3076L215.648 56.0254C214.233 55.1649 212.797 54.3349 211.343 53.5352L209.897 56.1641ZM110.574 49.1289C109.054 49.7987 107.552 50.5011 106.067 51.2344L106.731 52.5791L107.396 53.9238C108.841 53.21 110.304 52.5269 111.783 51.875L110.574 49.1289ZM201.217 51.875C202.696 52.5269 204.159 53.21 205.604 53.9238L206.269 52.5791L206.933 51.2344C205.448 50.5011 203.946 49.7986 202.426 49.1289L201.217 51.875ZM73.0957 47.8047C71.741 48.8457 70.4067 49.9121 69.0928 51.002L70.0498 52.1562L71.0078 53.3105C72.2931 52.2445 73.5987 51.2019 74.9238 50.1836L73.0957 47.8047ZM238.076 50.1836C239.401 51.2018 240.707 52.2445 241.992 53.3105L243.908 51.002C242.594 49.912 241.259 48.8458 239.904 47.8047L238.076 50.1836ZM119.843 45.5225C118.269 46.0565 116.711 46.6236 115.169 47.2236L115.713 48.6221L116.257 50.0195C117.758 49.4354 119.275 48.8832 120.807 48.3633L120.325 46.9424L119.843 45.5225ZM192.675 46.9424L192.193 48.3633C193.725 48.8832 195.242 49.4354 196.743 50.0195L197.287 48.6221L197.831 47.2236C196.289 46.6236 194.731 46.0565 193.157 45.5225L192.675 46.9424ZM230.73 43.123L229.908 44.3779C231.306 45.2949 232.685 46.2379 234.046 47.2051L235.784 44.7598C234.393 43.7709 232.983 42.8067 231.554 41.8691L230.73 43.123ZM81.4473 41.8691C80.0181 42.8068 78.6071 43.7708 77.2158 44.7598L78.085 45.9824L78.9541 47.2041C80.3149 46.2368 81.695 45.295 83.0928 44.3779L82.2695 43.123L81.4473 41.8691ZM129.395 42.7422C127.779 43.1363 126.176 43.5652 124.588 44.0273L125.426 46.9082C126.972 46.4583 128.532 46.0409 130.105 45.6572L129.75 44.2002L129.395 42.7422ZM183.251 44.2002L182.896 45.6572C184.468 46.0409 186.028 46.4583 187.574 46.9082L188.412 44.0273C186.824 43.5652 185.222 43.1363 183.606 42.7422L183.251 44.2002ZM139.156 40.8115C137.51 41.0628 135.875 41.349 134.253 41.6699L134.544 43.1416L134.836 44.6133C136.415 44.3009 138.006 44.021 139.608 43.7764L139.382 42.2939L139.156 40.8115ZM173.392 43.7764C174.994 44.021 176.586 44.3009 178.165 44.6133L178.747 41.6699C177.125 41.349 175.491 41.0628 173.845 40.8115L173.392 43.7764ZM149.038 39.7402C147.378 39.8476 145.727 39.9903 144.086 40.168L144.247 41.6592L144.409 43.1504C146.007 42.9774 147.614 42.8389 149.231 42.7344L149.038 39.7402ZM163.769 42.7344C165.386 42.8389 166.994 42.9773 168.592 43.1504L168.914 40.168C167.273 39.9903 165.622 39.8475 163.962 39.7402L163.769 42.7344ZM156.5 39.5C155.667 39.5 154.835 39.5086 154.006 39.5264L154.037 41.0264L154.069 42.5264C154.877 42.509 155.688 42.5 156.5 42.5C157.312 42.5 158.123 42.509 158.931 42.5264L158.995 39.5264C158.166 39.5086 157.334 39.5 156.5 39.5ZM221.328 39.1973C222.791 40.0074 224.237 40.8444 225.666 41.707L227.217 39.1387C225.756 38.2567 224.277 37.4006 222.781 36.5723L221.328 39.1973ZM90.2188 36.5723C88.7232 37.4006 87.2448 38.2567 85.7842 39.1387L86.5596 40.4229L87.335 41.7061C88.7634 40.8435 90.2093 40.0073 91.6719 39.1973L90.2188 36.5723ZM99.3604 31.9482C97.8063 32.6623 96.2681 33.4049 94.7461 34.1748L95.4229 35.5137L96.0996 36.8516C97.5883 36.0986 99.0934 35.3732 100.613 34.6748L99.9873 33.3115L99.3604 31.9482ZM213.013 33.3115L212.387 34.6748C213.907 35.3732 215.412 36.0985 216.9 36.8516L217.577 35.5137L218.254 34.1748C216.732 33.4049 215.194 32.6623 213.64 31.9482L213.013 33.3115ZM108.828 28.0225C107.224 28.6181 105.633 29.2432 104.058 29.8965L104.633 31.2822L105.207 32.667C106.748 32.0281 108.303 31.4174 109.872 30.835L109.351 29.4287L108.828 28.0225ZM203.65 29.4287L203.128 30.835C204.697 31.4174 206.252 32.0281 207.793 32.667L208.368 31.2822L208.942 29.8965C207.367 29.2432 205.776 28.6181 204.172 28.0225L203.65 29.4287ZM118.559 24.8223C116.914 25.2953 115.282 25.7987 113.663 26.3311L114.131 27.7559L114.6 29.1807C116.183 28.6599 117.78 28.1678 119.389 27.7051L118.559 24.8223ZM194.026 26.2637L193.612 27.7051C195.221 28.1678 196.817 28.66 198.4 29.1807L199.338 26.3311C197.719 25.7986 196.086 25.2954 194.441 24.8223L194.026 26.2637ZM128.511 22.3623C126.833 22.7106 125.166 23.089 123.512 23.498L123.871 24.9541L124.231 26.4102C125.85 26.0101 127.479 25.6395 129.12 25.2988L128.815 23.8301L128.511 22.3623ZM184.185 23.8301L183.88 25.2988C185.521 25.6395 187.15 26.0101 188.769 26.4102L189.489 23.498C187.834 23.0889 186.167 22.7106 184.489 22.3623L184.185 23.8301ZM138.608 20.6582C136.91 20.8798 135.221 21.1318 133.542 21.415L133.792 22.8945L134.041 24.374C135.683 24.097 137.335 23.8495 138.996 23.6328L138.803 22.1455L138.608 20.6582ZM174.197 22.1455L174.004 23.6328C175.665 23.8495 177.317 24.097 178.959 24.374L179.208 22.8945L179.458 21.415C177.779 21.1318 176.09 20.8798 174.392 20.6582L174.197 22.1455ZM148.815 19.7119C147.103 19.8066 145.399 19.9328 143.704 20.0898L143.842 21.583L143.98 23.0771C145.639 22.9235 147.306 22.7997 148.981 22.707L148.898 21.21L148.815 19.7119ZM164.102 21.21L164.02 22.707C165.695 22.7997 167.361 22.9235 169.02 23.0771L169.158 21.583L169.297 20.0898C167.602 19.9328 165.897 19.8066 164.185 19.7119L164.102 21.21ZM156.5 19.5C155.641 19.5 154.785 19.5077 153.93 19.5234L153.984 22.5234C154.821 22.508 155.66 22.5 156.5 22.5C157.34 22.5 158.179 22.508 159.016 22.5234L159.043 21.0234L159.071 19.5234C158.216 19.5077 157.359 19.5 156.5 19.5Z" stroke="white" stroke-width="3" stroke-dasharray="5 5"/>
</svg>
