<svg width="208" height="313" viewBox="0 0 208 313" fill="none" xmlns="http://www.w3.org/2000/svg">
<path opacity="0.2" d="M165.5 156.5C165.5 217.804 115.804 267.5 54.5 267.5L-149.5 267.5L-149.5 45.5001L54.5 45.5001C115.804 45.5001 165.5 95.1965 165.5 156.5Z" stroke="white" stroke-width="3"/>
<path opacity="0.2" d="M206.5 156.5C206.5 242.104 137.104 311.5 51.4999 311.5L-149.5 311.5L-149.5 1.50004L51.5 1.50009C137.104 1.50011 206.5 70.896 206.5 156.5Z" stroke="white" stroke-width="3"/>
<path opacity="0.2" d="M60.371 291.713C58.4136 291.839 56.4449 291.923 54.4658 291.966L54.4335 290.469C53.4582 290.49 52.4803 290.5 51.4999 290.5L48.5224 290.5L48.5224 292L42.5663 292L42.5663 290.5L36.6103 290.5L36.6103 292L30.6542 292L30.6542 290.5L24.6982 290.5L24.6982 292L18.7421 292L18.7421 290.5L12.7871 290.5L12.7871 292L6.831 292L6.831 290.5L0.874941 290.5L0.874941 292L-5.08111 292L-5.08111 290.5L-11.0372 290.5L-11.0372 292L-16.9922 292L-16.9922 290.5L-22.9483 290.5L-22.9483 292L-28.9044 292L-28.9044 290.5L-34.8604 290.5L-34.8604 292L-40.8165 292L-40.8165 290.5L-46.7725 290.5L-46.7725 292L-52.7276 292L-52.7276 290.5L-58.6837 290.5L-58.6837 292L-64.6397 292L-64.6397 290.5L-70.5958 290.5L-70.5958 292L-76.5518 292L-76.5518 290.5L-82.5069 290.5L-82.5069 292L-88.4629 292L-88.4629 290.5L-94.419 290.5L-94.419 292L-100.375 292L-100.375 290.5L-106.331 290.5L-106.331 292L-112.287 292L-112.287 290.5L-118.242 290.5L-118.242 292L-124.198 292L-124.198 290.5L-130.154 290.5L-130.154 292L-136.11 292L-136.11 290.5L-142.066 290.5L-142.066 292L-148.023 292L-148.023 290.5L-149.5 290.5L-149.5 289.055L-151 289.055L-151 283.163L-149.5 283.163L-149.5 277.272L-151 277.272L-151 271.381L-149.5 271.381L-149.5 265.489L-151 265.489L-151 259.598L-149.5 259.598L-149.5 253.707L-151 253.707L-151 247.815L-149.5 247.815L-149.5 241.924L-151 241.924L-151 236.032L-149.5 236.032L-149.5 230.142L-151 230.142L-151 224.25L-149.5 224.25L-149.5 218.358L-151 218.358L-151 212.468L-149.5 212.468L-149.5 206.576L-151 206.576L-151 200.685L-149.5 200.685L-149.5 194.794L-151 194.794L-151 188.902L-149.5 188.902L-149.5 183.011L-151 183.011L-151 177.119L-149.5 177.119L-149.5 171.229L-151 171.229L-151 165.337L-149.5 165.337L-149.5 159.445L-151 159.445L-151 153.555L-149.5 153.555L-149.5 147.663L-151 147.663L-151 141.772L-149.5 141.772L-149.5 135.881L-151 135.881L-151 129.989L-149.5 129.989L-149.5 124.098L-151 124.098L-151 118.206L-149.5 118.206L-149.5 112.315L-151 112.315L-151 106.424L-149.5 106.424L-149.5 100.532L-151 100.532L-151 94.6416L-149.5 94.6417L-149.5 88.75L-151 88.75L-151 82.8584L-149.5 82.8584L-149.5 76.9678L-151 76.9678L-151 71.0762L-149.5 71.0762L-149.5 65.1846L-151 65.1846L-151 59.293L-149.5 59.293L-149.5 53.4024L-151 53.4024L-151 47.5108L-149.5 47.5108L-149.5 41.6192L-151 41.6192L-151 35.7286L-149.5 35.7286L-149.5 29.837L-151 29.837L-151 23.9454L-149.5 23.9454L-149.5 22.5L-148.022 22.5L-148.022 21L-142.066 21.0001L-142.066 22.5001L-136.11 22.5001L-136.11 21.0001L-130.154 21.0001L-130.154 22.5001L-124.198 22.5001L-124.198 21.0001L-118.242 21.0001L-118.242 22.5001L-112.287 22.5001L-112.287 21.0001L-106.331 21.0001L-106.331 22.5001L-100.375 22.5001L-100.375 21.0001L-94.4189 21.0001L-94.4189 22.5001L-88.4629 22.5001L-88.4629 21.0001L-82.5068 21.0001L-82.5068 22.5001L-76.5518 22.5001L-76.5518 21.0001L-70.5957 21.0001L-70.5957 22.5001L-64.6396 22.5001L-64.6396 21.0001L-58.6836 21.0001L-58.6836 22.5001L-52.7275 22.5001L-52.7275 21.0001L-46.7725 21.0001L-46.7725 22.5001L-40.8164 22.5001L-40.8164 21.0001L-34.8604 21.0001L-34.8604 22.5001L-28.9043 22.5001L-28.9043 21.0001L-22.9482 21.0001L-22.9482 22.5001L-16.9922 22.5001L-16.9922 21.0001L-11.0371 21.0001L-11.0371 22.5001L-5.08106 22.5001L-5.08105 21.0001L0.875 21.0001L0.875 22.5001L6.83105 22.5001L6.83105 21.0001L12.7871 21.0001L12.7871 22.5001L18.7432 22.5001L18.7432 21.0001L24.6982 21.0001L24.6982 22.5001L30.6543 22.5001L30.6543 21.0001L36.6104 21.0001L36.6104 22.5001L42.5664 22.5001L42.5664 21.0001L48.5225 21.0001L48.5225 22.5001L51.5 22.5001C52.4804 22.5001 53.4583 22.5104 54.4336 22.5313L54.4658 21.0333C56.4447 21.0758 58.413 21.1598 60.3701 21.2862L60.2734 22.7823C62.226 22.9085 64.1679 23.0773 66.0967 23.2862L66.2578 21.797C67.6617 21.949 69.0595 22.1199 70.4502 22.3145L72.1172 22.5587L71.8916 24.0411C73.8262 24.3364 75.747 24.6737 77.6533 25.0509L77.9443 23.5812C79.8845 23.965 81.8103 24.3879 83.7197 24.8536L83.3643 26.3116C85.2632 26.7748 87.1464 27.2783 89.0127 27.8214L89.4316 26.3829C91.3288 26.935 93.2095 27.5255 95.0713 28.1573L94.5889 29.5782C96.4384 30.2059 98.2698 30.8729 100.082 31.5782L100.626 30.1817C102.466 30.8979 104.287 31.6522 106.087 32.4454L105.482 33.8175C107.268 34.6045 109.034 35.4294 110.778 36.2911L111.443 34.9474C113.213 35.8215 114.959 36.7346 116.684 37.6827L115.962 38.9952C117.672 39.9353 119.359 40.9115 121.022 41.923L121.802 40.6417C123.488 41.6669 125.149 42.7287 126.785 43.8243L125.951 45.0694C127.572 46.1547 129.168 47.2747 130.738 48.4278L131.626 47.2198C132.817 48.0949 133.995 48.9878 135.156 49.9005L136.314 50.8214L135.375 51.9903C136.895 53.2118 138.388 54.4657 139.853 55.7511L140.841 54.6251C142.322 55.9255 143.776 57.2573 145.199 58.6202L144.162 59.7032C145.57 61.0514 146.949 62.4301 148.297 63.838L149.38 62.8009C150.743 64.2243 152.075 65.6776 153.375 67.1593L152.249 68.1476C153.534 69.6121 154.788 71.1052 156.01 72.6251L157.179 71.6857C158.413 73.2212 159.613 74.7848 160.78 76.3741L159.572 77.2618C160.725 78.8318 161.845 80.4279 162.931 82.0489L164.176 81.215C164.978 82.4125 165.762 83.6226 166.526 84.8468L167.358 86.1984L166.077 86.9777C167.089 88.6411 168.065 90.3283 169.005 92.0382L170.317 91.3165C171.265 93.041 172.179 94.7876 173.053 96.5568L171.709 97.2218C172.571 98.966 173.396 100.732 174.183 102.518L175.555 101.913C176.348 103.713 177.102 105.534 177.818 107.374L176.422 107.918C177.127 109.73 177.794 111.562 178.422 113.411L179.843 112.929C180.475 114.791 181.065 116.671 181.617 118.568L180.179 118.987C180.722 120.854 181.225 122.737 181.688 124.636L183.146 124.28C183.612 126.19 184.035 128.116 184.419 130.056L182.949 130.347C183.326 132.253 183.664 134.174 183.959 136.109L185.441 135.883C185.738 137.823 185.99 139.776 186.203 141.742L184.714 141.903C184.923 143.832 185.092 145.774 185.218 147.727L186.713 147.629C186.839 149.586 186.924 151.555 186.967 153.534L185.469 153.567C185.49 154.542 185.5 155.52 185.5 156.5C185.5 157.48 185.49 158.458 185.469 159.434L186.967 159.465C186.924 161.444 186.839 163.413 186.713 165.37L185.218 165.274C185.092 167.226 184.923 169.168 184.714 171.097L186.203 171.257C185.99 173.223 185.737 175.177 185.441 177.116L183.959 176.892C183.664 178.826 183.326 180.747 182.949 182.653L184.419 182.943C184.035 184.884 183.612 186.809 183.146 188.719L181.688 188.364C181.225 190.263 180.722 192.147 180.179 194.013L181.617 194.431C181.065 196.328 180.475 198.209 179.843 200.07L178.422 199.589C177.794 201.439 177.127 203.27 176.422 205.082L177.818 205.625C177.102 207.465 176.348 209.286 175.555 211.086L174.183 210.483C173.396 212.269 172.571 214.034 171.709 215.778L173.053 216.443C172.179 218.212 171.265 219.958 170.317 221.683L169.005 220.962C168.065 222.672 167.089 224.359 166.077 226.023L167.358 226.801C166.333 228.487 165.271 230.148 164.176 231.784L162.931 230.951C161.845 232.572 160.725 234.168 159.572 235.738L160.78 236.625C159.613 238.215 158.413 239.778 157.179 241.314L157.179 241.315L156.01 240.375C154.788 241.895 153.534 243.388 152.249 244.853L153.375 245.84C152.075 247.322 150.743 248.775 149.38 250.198L148.297 249.163C146.949 250.571 145.57 251.949 144.162 253.297L145.199 254.379C143.776 255.742 142.322 257.074 140.841 258.374L139.852 257.249C138.388 258.534 136.895 259.788 135.375 261.01L136.314 262.178C134.779 263.412 133.215 264.612 131.626 265.779L130.738 264.572C129.168 265.725 127.572 266.846 125.951 267.931L126.785 269.175C125.149 270.271 123.488 271.332 121.802 272.358L121.802 272.359L121.022 271.077C119.359 272.089 117.672 273.065 115.962 274.005L116.684 275.317C114.959 276.265 113.213 277.178 111.443 278.052L110.778 276.709C109.034 277.571 107.268 278.396 105.482 279.183L106.087 280.554C104.287 281.347 102.466 282.101 100.626 282.817L100.082 281.422C98.2697 282.127 96.4383 282.794 94.5888 283.422L95.0712 284.842C93.2094 285.474 91.3288 286.064 89.4316 286.616L89.0126 285.179C87.1463 285.722 85.2632 286.225 83.3642 286.689L83.7197 288.146C81.8102 288.611 79.8845 289.034 77.9443 289.418L77.6533 287.949C75.7469 288.326 73.8261 288.664 71.8915 288.959L72.1171 290.441C70.1773 290.737 68.2237 290.989 66.2578 291.202L66.0966 289.715C64.1678 289.924 62.226 290.092 60.2734 290.218L60.371 291.713Z" stroke="white" stroke-width="3" stroke-dasharray="6 6"/>
</svg>
